<?xml version="1.0" encoding="utf-8"?>
<!-- Generator: Adobe Illustrator 25.2.3, SVG Export Plug-In . SVG Version: 6.00 Build 0)  -->
<svg version="1.1" id="Camada_1" xmlns="http://www.w3.org/2000/svg" xmlns:xlink="http://www.w3.org/1999/xlink" x="0px" y="0px"
	 viewBox="0 0 2686 884" style="enable-background:new 0 0 2686 884;" xml:space="preserve">
<style type="text/css">
	.st0{display:none;}
	.st1{fill:#FFFFFF;}
	.st2{fill:#822B7D;}
</style>
<g id="Camada_1_1_" class="st0">
</g>
<g id="Camada_2_1_">
	<g>
		<polygon class="st1" points="427.7,173.5 341.3,86.8 427.7,0.1 514,86.8 		"/>
		<path class="st1" d="M2075.2,393.3c-67.3,0-121.9-54.8-121.9-122.5c0-67.6,54.6-122.5,121.9-122.5c67.3,0,121.9,54.8,121.9,122.5
			C2197.1,338.5,2142.5,393.3,2075.2,393.3 M2075.2,25.5c-134.9,0-244.2,109.8-244.2,245.3s109.3,245.3,244.2,245.3
			c134.9,0,244.2-109.8,244.2-245.3C2319.4,135.3,2210.1,25.5,2075.2,25.5"/>
		<path class="st1" d="M244.5,393.3c-67.3,0-121.9-54.8-121.9-122.5c0-67.6,54.6-122.5,121.9-122.5s121.9,54.8,121.9,122.5
			C366.5,338.5,311.9,393.3,244.5,393.3 M244.5,25.5C109.7,25.5,0.4,135.3,0.4,270.8c0,135.5,109.3,245.3,244.2,245.3
			s244.2-109.8,244.2-245.3C488.7,135.3,379.4,25.5,244.5,25.5"/>
		<rect x="976.4" y="25.5" class="st1" width="122.1" height="490.6"/>
		<path class="st1" d="M610.2,270.8l0,245.3h122l0.1-245.3c0-67.6,54.7-122.5,122-122.5V25.5C719.5,25.5,610.2,135.4,610.2,270.8"/>
		<polygon class="st1" points="1647.9,173.5 1561.6,86.8 1647.9,0.1 1734.2,86.8 		"/>
		<path class="st1" d="M1464.8,393.3c-67.3,0-121.9-54.8-121.9-122.5c0-67.6,54.6-122.5,121.9-122.5c67.3,0,121.9,54.8,121.9,122.5
			C1586.7,338.5,1532.1,393.3,1464.8,393.3 M1464.8,25.5c-134.8,0-244.2,109.8-244.2,245.3s109.3,245.3,244.2,245.3
			c134.9,0,244.2-109.8,244.2-245.3C1708.9,135.3,1599.6,25.5,1464.8,25.5"/>
		<path class="st1" d="M1464.8,393.3v122.8c67.3,0,121.9,54.8,121.9,122.5c0,67.7-54.6,122.5-121.9,122.5
			c-67.3,0-121.9-54.8-121.9-122.5c0-28.9,10.2-55.3,26.9-76.3c-39.9-13.1-76.1-34.2-106.9-61.5c-26.6,39.3-42.3,86.7-42.3,137.8
			c0,135.5,109.3,245.3,244.2,245.3c134.9,0,244.2-109.8,244.2-245.3C1708.9,503.1,1599.6,393.3,1464.8,393.3"/>
		<path class="st2" d="M2075.2,638.4c0-33.9-27.3-61.3-61-61.3c-33.7,0-61,27.5-61,61.3v61.3h30.5l0-61.3
			c0-16.9,13.7-30.6,30.5-30.6c16.8,0,30.5,13.7,30.5,30.6v61.3h30.6V638.4z"/>
		<path class="st2" d="M1861.6,607.8c11.3,0,21.1,6.2,26.4,15.3h-52.7C1840.4,613.9,1850.3,607.8,1861.6,607.8 M1920.7,653.7
			c1.3-4.9,1.9-10,1.9-15.3c0-33.9-27.3-61.3-61-61.3s-64.4,27.5-64.4,61.3c0,33.9,30.7,61.3,64.4,61.3c16.8,0,32.1-6.9,43.2-18
			l-21.6-21.7c-5.5,5.5-13.1,9-21.5,9c-11.3,0-21.1-6.2-26.4-15.3L1920.7,653.7L1920.7,653.7z"/>
		<path class="st2" d="M2166.8,607.8c11.3,0,21.1,6.2,26.4,15.3h-52.7C2145.7,613.9,2155.5,607.8,2166.8,607.8 M2225.9,653.7
			c1.2-4.9,1.9-10,1.9-15.3c0-33.9-27.3-61.3-61-61.3s-61,27.5-61,61.3c0,33.9,27.3,61.3,61,61.3c16.9,0,32.1-6.9,43.2-18
			l-21.6-21.7c-5.5,5.5-13.1,9-21.6,9c-11.3,0-21.1-6.2-26.4-15.3L2225.9,653.7L2225.9,653.7z"/>
		<rect x="2502.5" y="577.1" class="st2" width="30.5" height="122.6"/>
		<path class="st2" d="M2258.3,638.4l0,61.3h30.5l0-61.3c0-16.9,13.7-30.6,30.5-30.6l0-30.7C2285.7,577.1,2258.3,604.5,2258.3,638.4
			"/>
		<path class="st2" d="M2624.6,669c-16.8,0-30.5-13.7-30.5-30.6c0-16.9,13.6-30.6,30.5-30.6s30.5,13.7,30.5,30.6
			C2655.1,655.3,2641.4,669,2624.6,669 M2685.6,638.4c0-33.9-27.3-61.3-61-61.3s-61,27.5-61,61.3c0,33.9,27.3,61.3,61,61.3
			c11.1,0,21.6-3,30.5-8.2v8.2h30.5v-60.9C2685.6,638.7,2685.6,638.5,2685.6,638.4"/>
		<path class="st2" d="M2380.5,638.4c0-16.9,13.6-30.6,30.5-30.6c16.8,0,30.5,13.7,30.5,30.6s-13.7,30.6-30.5,30.6
			C2394.1,669,2380.5,655.3,2380.5,638.4 M2472,638.4c0-11.4-3.1-22-8.5-31.1l14.8-14.8l-21.6-21.7l-14.8,14.8
			c-9.1-5.4-19.7-8.5-31-8.5c-33.7,0-61,27.5-61,61.3s27.3,61.3,61,61.3c16.8,0,30.5,13.7,30.5,30.6s-13.7,30.6-30.5,30.6
			c-16.8,0-30.5-13.7-30.5-30.6h-30.6c0,33.9,27.3,61.3,61,61.3c33.7,0,61-27.5,61-61.3c0-18.3-8-34.7-20.7-46
			C2464,673.1,2472,656.7,2472,638.4"/>
		<path class="st2" d="M1525.8,638.4c0,33.9-27.3,61.3-61.1,61.3c-33.7,0-61-27.5-61-61.3s27.3-61.3,61-61.3
			C1498.5,577.1,1525.8,604.5,1525.8,638.4"/>
	</g>
</g>
</svg>
