<?xml version="1.0" encoding="utf-8"?>
<!-- Generator: Adobe Illustrator 24.0.2, SVG Export Plug-In . SVG Version: 6.00 Build 0)  -->
<svg version="1.1" xmlns="http://www.w3.org/2000/svg" xmlns:xlink="http://www.w3.org/1999/xlink" x="0px" y="0px"
	 viewBox="0 0 2686 884" style="enable-background:new 0 0 2686 884;" xml:space="preserve">
<style type="text/css">
	.st0{fill:#1F9C8F;}
	.st1{fill:#822B7D;}
</style>
<g id="Camada_1">
</g>
<g id="Camada_2">
	<g>
		<polygon class="st0" points="427.67,173.54 341.34,86.8 427.67,0.08 514,86.8 		"/>
		<path class="st0" d="M2075.21,393.28c-67.33,0-121.92-54.83-121.92-122.48c0-67.63,54.58-122.47,121.92-122.47
			c67.33,0,121.91,54.84,121.91,122.47C2197.12,338.45,2142.54,393.28,2075.21,393.28 M2075.21,25.48
			c-134.86,0-244.18,109.83-244.18,245.32c0,135.49,109.31,245.33,244.18,245.33c134.85,0,244.16-109.83,244.16-245.33
			C2319.37,135.32,2210.05,25.48,2075.21,25.48"/>
		<path class="st0" d="M244.54,393.28c-67.33,0-121.9-54.83-121.9-122.48c0-67.63,54.57-122.47,121.9-122.47
			c67.33,0,121.91,54.84,121.91,122.47C366.46,338.45,311.87,393.28,244.54,393.28 M244.54,25.48
			C109.69,25.48,0.36,135.32,0.36,270.8c0,135.49,109.33,245.33,244.18,245.33c134.85,0,244.18-109.83,244.18-245.33
			C488.72,135.32,379.39,25.48,244.54,25.48"/>
		<rect x="976.41" y="25.48" class="st0" width="122.09" height="490.64"/>
		<path class="st0" d="M610.2,270.84l0.04,245.29h122l0.09-245.29c0-67.64,54.67-122.52,122-122.52V25.47
			C719.48,25.47,610.2,135.36,610.2,270.84"/>
		<polygon class="st0" points="1647.9,173.54 1561.56,86.8 1647.9,0.08 1734.23,86.8 		"/>
		<path class="st0" d="M1464.76,393.28c-67.33,0-121.9-54.83-121.9-122.48c0-67.63,54.57-122.47,121.9-122.47
			c67.33,0,121.91,54.84,121.91,122.47C1586.68,338.45,1532.09,393.28,1464.76,393.28 M1464.76,25.48
			c-134.85,0-244.18,109.83-244.18,245.32c0,135.49,109.33,245.33,244.18,245.33c134.86,0,244.18-109.83,244.18-245.33
			C1708.94,135.32,1599.63,25.48,1464.76,25.48"/>
		<path class="st0" d="M1464.76,393.28v122.84c67.33,0,121.91,54.84,121.91,122.47c0,67.65-54.58,122.48-121.91,122.48
			c-67.33,0-121.9-54.83-121.9-122.48c0-28.93,10.16-55.35,26.88-76.29c-39.89-13.11-76.13-34.24-106.89-61.51
			c-26.64,39.29-42.27,86.7-42.27,137.81c0,135.49,109.33,245.33,244.18,245.33c134.86,0,244.18-109.83,244.18-245.33
			C1708.94,503.13,1599.63,393.28,1464.76,393.28"/>
		<path class="st1" d="M2075.21,638.4c0-33.86-27.34-61.33-61.04-61.33c-33.72,0-61.04,27.46-61.04,61.33v61.33h30.52l0.04-61.33
			c0-16.92,13.65-30.62,30.48-30.62c16.82,0,30.47,13.7,30.47,30.62v61.33h30.57V638.4z"/>
		<path class="st1" d="M1861.56,607.78c11.28,0,21.09,6.16,26.36,15.31h-52.74C1840.45,613.94,1850.28,607.78,1861.56,607.78
			 M1920.67,653.72c1.26-4.9,1.92-10.04,1.92-15.32c0-33.88-27.32-61.33-61.03-61.33s-64.41,27.45-64.41,61.33
			c0,33.86,30.7,61.33,64.41,61.33c16.84,0,32.11-6.87,43.16-17.96l-21.62-21.72c-5.51,5.55-13.13,8.96-21.54,8.96
			c-11.28,0-21.1-6.16-26.38-15.3h85.45L1920.67,653.72z"/>
		<path class="st1" d="M2166.77,607.78c11.28,0,21.09,6.16,26.36,15.31h-52.74C2145.67,613.94,2155.5,607.78,2166.77,607.78
			 M2225.89,653.72c1.25-4.9,1.92-10.04,1.92-15.32c0-33.88-27.32-61.33-61.03-61.33s-61.04,27.45-61.04,61.33
			c0,33.86,27.33,61.33,61.04,61.33c16.86,0,32.11-6.87,43.17-17.96l-21.62-21.72c-5.52,5.55-13.13,8.96-21.55,8.96
			c-11.28,0-21.1-6.16-26.38-15.3h85.45L2225.89,653.72z"/>
		<rect x="2502.52" y="577.06" class="st1" width="30.5" height="122.61"/>
		<path class="st1" d="M2258.34,638.41l0.01,61.32h30.5l0.03-61.32c0-16.92,13.66-30.62,30.51-30.62l-0.01-30.72
			C2285.66,577.07,2258.34,604.55,2258.34,638.41"/>
		<path class="st1" d="M2624.59,669.01c-16.83,0-30.47-13.7-30.47-30.62c0-16.91,13.64-30.61,30.47-30.61
			c16.83,0,30.48,13.7,30.48,30.61C2655.08,655.31,2641.42,669.01,2624.59,669.01 M2685.64,638.39c0-33.86-27.32-61.33-61.04-61.33
			c-33.72,0-61.04,27.46-61.04,61.33c0,33.88,27.33,61.34,61.04,61.34c11.13,0,21.56-3.01,30.53-8.23v8.23h30.51v-60.9
			C2685.64,638.69,2685.64,638.55,2685.64,638.39"/>
		<path class="st1" d="M2380.46,638.4c0-16.92,13.65-30.62,30.49-30.62c16.82,0,30.48,13.7,30.48,30.62
			c0,16.92-13.66,30.62-30.48,30.62C2394.11,669.02,2380.46,655.31,2380.46,638.4 M2471.99,638.4c0-11.37-3.09-22.02-8.47-31.14
			l14.79-14.85l-21.59-21.68l-14.78,14.85c-9.1-5.4-19.69-8.5-31-8.5c-33.72,0-61.04,27.46-61.04,61.33s27.33,61.33,61.04,61.33
			c16.82,0,30.48,13.71,30.48,30.62c0,16.91-13.66,30.62-30.48,30.62c-16.83,0-30.49-13.71-30.49-30.62h-30.56
			c0,33.88,27.33,61.33,61.04,61.33c33.7,0,61.04-27.45,61.04-61.33c0-18.32-8-34.73-20.67-45.98
			C2463.99,673.14,2471.99,656.71,2471.99,638.4"/>
		<path class="st1" d="M1525.82,638.39c0,33.88-27.33,61.34-61.06,61.34c-33.72,0-61.04-27.46-61.04-61.34
			c0-33.88,27.33-61.33,61.04-61.33C1498.49,577.06,1525.82,604.51,1525.82,638.39"/>
	</g>
</g>
</svg>
